<svg width="168" height="20" viewBox="0 0 168 20" fill="none" xmlns="http://www.w3.org/2000/svg">
<g id="logo">
<path id="Fill 1" fill-rule="evenodd" clip-rule="evenodd" d="M9.53217 17.92H0.575321C0.191583 17.92 0 17.7251 0 17.3346V0.585067C0 0.195216 0.191583 0 0.575321 0H9.53217C9.89729 0 10.08 0.195216 10.08 0.585067V2.48041C10.08 2.87056 9.89729 3.06577 9.53217 3.06577H3.8076C3.58824 3.06577 3.47856 3.16804 3.47856 3.372V6.99516C3.47856 7.19999 3.58824 7.30168 3.8076 7.30168H8.49121C8.87495 7.30168 9.06653 7.49689 9.06653 7.88704V9.78209C9.06653 10.1722 8.87495 10.3675 8.49121 10.3675H3.8076C3.58824 10.3675 3.47856 10.4697 3.47856 10.674V14.5477C3.47856 14.7525 3.58824 14.8545 3.8076 14.8545H9.53217C9.89729 14.8545 10.08 15.0494 10.08 15.4396V17.3346C10.08 17.7251 9.89729 17.92 9.53217 17.92" fill="#252731"/>
<path id="Fill 3" fill-rule="evenodd" clip-rule="evenodd" d="M37.8559 17.92H35.5045C35.0932 17.92 34.888 17.7251 34.888 17.3346V3.372C34.888 3.16804 34.7855 3.06577 34.5803 3.06577H31.3881C30.9962 3.06577 30.8 2.87056 30.8 2.48041V0.585067C30.8 0.195216 30.9962 0 31.3881 0H41.9723C42.3639 0 42.56 0.195216 42.56 0.585067V2.48041C42.56 2.87056 42.3639 3.06577 41.9723 3.06577H38.7801C38.5564 3.06577 38.4443 3.16804 38.4443 3.372V17.3346C38.4443 17.7251 38.2482 17.92 37.8559 17.92" fill="#252731"/>
<path id="Fill 5" fill-rule="evenodd" clip-rule="evenodd" d="M50.858 8.47239H53.5694C54.1591 8.47239 54.593 8.34681 54.8695 8.09595C55.146 7.84537 55.2846 7.44124 55.2846 6.88386V4.70996C55.2846 4.13422 55.146 3.7164 54.8695 3.45591C54.593 3.19601 54.1591 3.06577 53.5694 3.06577H50.858C50.655 3.06577 50.5537 3.16804 50.5537 3.37229V8.16588C50.5537 8.37042 50.655 8.47239 50.858 8.47239M49.9724 17.92H47.6214C47.2338 17.92 47.04 17.7251 47.04 17.3349V0.585358C47.04 0.195216 47.2338 0 47.6214 0H54.2054C55.6444 0 56.7692 0.399757 57.5808 1.1984C58.3922 1.99762 58.7982 3.12142 58.7982 4.57069V6.74429C58.7982 8.84418 57.9771 10.2378 56.3357 10.9248V11.0364L59.296 17.2513C59.4621 17.6971 59.305 17.92 58.826 17.92H56.585C56.2526 17.92 56.0129 17.883 55.8653 17.8084C55.7178 17.7347 55.5981 17.5765 55.5058 17.3349L52.7395 11.315H50.8858C50.6645 11.315 50.5537 11.4172 50.5537 11.6215V17.3349C50.5537 17.7251 50.3599 17.92 49.9724 17.92" fill="#252731"/>
<path id="Fill 7" fill-rule="evenodd" clip-rule="evenodd" d="M69.6789 3.372L67.7101 11.4263H71.7573L69.7884 3.372H69.6789ZM65.7141 17.92H63.0892C62.761 17.92 62.6515 17.7248 62.761 17.3346L67.0815 0.585067C67.2087 0.194925 67.482 0 67.9017 0H71.5386C71.994 0 72.2675 0.194925 72.3587 0.585067L76.6789 17.3346C76.7884 17.7248 76.6789 17.92 76.3513 17.92H73.7258C73.5251 17.92 73.3888 17.878 73.3161 17.7944C73.243 17.7108 73.1881 17.5575 73.1518 17.3346L72.3862 14.2689H67.054L66.2885 17.3346C66.2519 17.5575 66.1927 17.7108 66.1106 17.7944C66.0283 17.878 65.8962 17.92 65.7141 17.92V17.92Z" fill="#252731"/>
<path id="Fill 9" fill-rule="evenodd" clip-rule="evenodd" d="M104.696 0H101.85C101.431 0 101.212 0.198212 101.194 0.59407L99.6339 13.8771H99.4155L96.7332 0.459003C96.6787 0.15319 96.4775 0 96.1311 0H93.0668C92.7382 0 92.5464 0.161968 92.4922 0.485903L89.8647 13.8771H89.6736L88.0862 0.566887C88.0678 0.188868 87.8491 0 87.4298 0H84.5839C84.146 0 83.9545 0.188868 84.0091 0.566887L86.937 16.7928C86.9919 17.1708 87.2194 17.36 87.621 17.36H91.4524C91.8166 17.36 92.0359 17.1708 92.1088 16.7928L94.5991 4.13074H94.7084L97.1714 16.7928C97.226 17.1708 97.445 17.36 97.8278 17.36H101.686C102.051 17.36 102.261 17.1708 102.316 16.7928L105.271 0.59407C105.326 0.198212 105.134 0 104.696 0" fill="#252731"/>
<path id="Fill 11" fill-rule="evenodd" clip-rule="evenodd" d="M113.07 11.0693L115.039 3.26682H115.148L117.117 11.0693H113.07ZM117.719 0.56717C117.627 0.189151 117.354 0 116.899 0H113.262C112.842 0 112.569 0.189151 112.441 0.56717L108.121 16.7928C108.012 17.1708 108.121 17.36 108.449 17.36H111.074C111.256 17.36 111.389 17.3195 111.471 17.2385C111.553 17.1573 111.612 17.0092 111.648 16.7928L112.414 13.8233H117.746L118.512 16.7928C118.548 17.0092 118.603 17.1573 118.676 17.2385C118.748 17.3195 118.885 17.36 119.086 17.36H121.711C122.039 17.36 122.148 17.1708 122.039 16.7928L117.719 0.56717Z" fill="#252731"/>
<path id="Fill 13" fill-rule="evenodd" clip-rule="evenodd" d="M136.612 0H126.028C125.636 0 125.44 0.188868 125.44 0.566887V2.4029C125.44 2.78092 125.636 2.96979 126.028 2.96979H129.22C129.425 2.96979 129.528 3.06889 129.528 3.26682V16.7928C129.528 17.1708 129.733 17.36 130.144 17.36H132.496C132.888 17.36 133.084 17.1708 133.084 16.7928V3.26682C133.084 3.06889 133.196 2.96979 133.42 2.96979H136.612C137.004 2.96979 137.2 2.78092 137.2 2.4029V0.566887C137.2 0.188868 137.004 0 136.612 0" fill="#252731"/>
<path id="Fill 15" fill-rule="evenodd" clip-rule="evenodd" d="M151.172 0H140.588C140.196 0 140 0.188868 140 0.566887V2.4029C140 2.78092 140.196 2.96979 140.588 2.96979H143.78C143.985 2.96979 144.088 3.06889 144.088 3.26682V16.7928C144.088 17.1708 144.293 17.36 144.704 17.36H147.056C147.448 17.36 147.644 17.1708 147.644 16.7928V3.26682C147.644 3.06889 147.756 2.96979 147.98 2.96979H151.172C151.564 2.96979 151.76 2.78092 151.76 2.4029V0.566887C151.76 0.188868 151.564 0 151.172 0" fill="#252731"/>
<path id="Fill 17" fill-rule="evenodd" clip-rule="evenodd" d="M166.785 9.35505C166.348 8.66244 165.804 8.18079 165.154 7.91065C163.928 7.42475 162.525 7.11894 160.945 6.99265C159.422 6.86692 158.66 6.38102 158.66 5.53465V5.02185C158.66 4.21173 158.794 3.66778 159.064 3.38858C159.333 3.10967 159.849 2.97007 160.611 2.97007H161.698C162.441 2.97007 162.953 3.09608 163.231 3.34809C163.51 3.6001 163.649 4.07694 163.649 4.7789V4.94087C163.649 5.31888 163.844 5.50775 164.235 5.50775H166.604C166.994 5.50775 167.189 5.31888 167.189 4.94087V4.42778C167.189 3.02387 166.78 1.93512 165.963 1.16124C165.145 0.387363 164.002 0 162.534 0H159.747C158.298 0 157.164 0.387363 156.346 1.16124C155.528 1.93512 155.12 3.02387 155.12 4.42778V5.37297C155.12 6.4889 155.338 7.40238 155.775 8.11311C156.211 8.82441 156.755 9.30097 157.405 9.54392C158.056 9.78687 158.758 9.98537 159.51 10.138C160.263 10.2912 160.964 10.3945 161.614 10.4483C162.265 10.5024 162.808 10.6692 163.245 10.9478C163.681 11.2273 163.9 11.6274 163.9 12.1493V12.4732C163.9 13.2117 163.756 13.7152 163.468 13.9853C163.18 14.2551 162.674 14.3902 161.949 14.3902H160.639C159.896 14.3902 159.385 14.2645 159.106 14.0122C158.827 13.7605 158.688 13.2927 158.688 12.6083V12.3925C158.688 12.0145 158.493 11.8253 158.102 11.8253H155.733C155.343 11.8253 155.148 12.0145 155.148 12.3925V12.9322C155.148 14.3361 155.556 15.4254 156.374 16.199C157.192 16.9732 158.325 17.36 159.775 17.36H162.813C164.262 17.36 165.396 16.9732 166.214 16.199C167.031 15.4254 167.44 14.3361 167.44 12.9322V12.0145C167.44 10.9345 167.221 10.0482 166.785 9.35505" fill="#252731"/>
<path id="Fill 19" fill-rule="evenodd" clip-rule="evenodd" d="M22.5425 14.3344H25.0864C25.5063 14.3344 25.7782 13.8848 25.5886 13.5043L23.3494 9.01317C23.2671 8.84855 23.2682 8.65392 23.3525 8.49017L27.3887 0.640718C27.4613 0.492412 27.457 0.348185 27.3747 0.208911C27.2924 0.0696369 27.1596 0 26.9769 0H24.2884C23.8857 0 23.5929 0.194925 23.4102 0.585067L20.8313 6.57705H20.7215L18.1154 0.585067C17.9688 0.194925 17.6671 0 17.2102 0H14.5762C14.3932 0 14.2653 0.0652664 14.1925 0.194925C14.119 0.325167 14.119 0.46444 14.1925 0.613038L18.1765 8.49192C18.2588 8.6545 18.2596 8.84738 18.1785 9.01084L14.0551 17.3067C13.9816 17.4739 13.9816 17.6181 14.0551 17.7388C14.1279 17.86 14.2561 17.92 14.4391 17.92H17.1554C17.5394 17.92 17.8136 17.7344 17.9783 17.3626L20.7215 11.3427H20.8313L22.0308 14.0008C22.1223 14.2042 22.3222 14.3344 22.5425 14.3344" fill="#252731"/>
<path id="Fill 21" fill-rule="evenodd" clip-rule="evenodd" d="M24.6439 19.0777C24.7871 19.4261 25.0469 19.6 25.423 19.6H28.1095C28.3064 19.6 28.4409 19.5438 28.5123 19.4304C28.5839 19.3171 28.5749 19.1735 28.4856 18.9993L27.1543 16.4448C27.0891 16.3192 26.9565 16.24 26.8119 16.24H23.9046C23.6246 16.24 23.4387 16.5218 23.5555 16.7691L24.6439 19.0777Z" fill="#00A775"/>
</g>
</svg>
