<svg width="163" height="66" viewBox="0 0 163 66" fill="none" xmlns="http://www.w3.org/2000/svg">
<g id="kiwi_logo">
<path id="Path-5-Copy" d="M67.6535 2.22038C64.5636 2.28691 62.197 2.40599 60.5536 2.5776C57.9668 2.84775 54.4311 3.31099 54.071 3.67769C53.8323 3.92071 53.8309 5.97561 54.0668 9.84238C54.0696 9.88599 54.0521 9.92844 54.0195 9.95769L45.5176 17.5754C45.5261 17.6517 45.5234 17.7029 45.5535 17.7362C45.5761 17.7611 45.6118 17.7696 45.6432 17.7575C49.2977 16.356 52.107 15.3296 54.071 14.6786C56.1013 14.0055 58.2234 13.4036 60.437 12.8729C60.5046 12.8567 60.5509 12.7948 60.5471 12.7258L60.1985 6.33753C60.1954 6.28099 60.2261 6.22794 60.2768 6.20215L67.7205 2.41259C67.7164 2.32625 67.729 2.28732 67.7127 2.25555C67.7013 2.23351 67.6783 2.21985 67.6535 2.22038Z" fill="#073F15"/>
<path id="Path-6-Copy" d="M42.6834 15.4906L48.8107 8.73872C48.8613 8.683 48.8606 8.601 48.8092 8.54597L46.2074 5.76088C46.1673 5.71785 46.1572 5.65695 46.1817 5.60456L48.7608 0.0827984C48.6452 0.0211633 48.6394 0.00721844 48.6266 0.00198311C48.6181 -0.0014995 48.6083 -0.000336782 48.601 0.00501144C46.4027 1.61317 44.9264 2.77046 44.1722 3.47686C43.403 4.19734 42.3834 5.26957 41.1135 6.69357C41.0613 6.7522 41.0654 6.83849 41.123 6.89249L44.1061 9.68656C44.1469 9.72475 44.1621 9.78074 44.1458 9.83255L42.4122 15.3534C42.3877 15.4316 42.4354 15.5136 42.5189 15.5366C42.5786 15.5531 42.6431 15.535 42.6834 15.4906Z" fill="#073F15"/>
<path id="Oval-Copy-4" d="M26.0894 65.501C40.4981 65.501 52.1787 53.8204 52.1787 39.4116C52.1787 25.0028 40.4981 13.3222 26.0894 13.3222C11.6806 13.3222 0 25.0028 0 39.4116C0 53.8204 11.6806 65.501 26.0894 65.501Z" fill="#13C93F"/>
<path id="Oval-Copy-4_2" fill-rule="evenodd" clip-rule="evenodd" d="M52.1787 39.4116C52.1787 53.8204 40.4981 65.501 26.0894 65.501C11.6806 65.501 0 53.8204 0 39.4116C0 25.0028 11.6806 13.3222 26.0894 13.3222C40.4981 13.3222 52.1787 25.0028 52.1787 39.4116ZM4.34823 39.4116C4.34823 51.4189 14.0821 61.1527 26.0894 61.1527C38.0967 61.1527 47.8305 51.4189 47.8305 39.4116C47.8305 27.4043 38.0967 17.6705 26.0894 17.6705C14.0821 17.6705 4.34823 27.4043 4.34823 39.4116Z" fill="#073F15"/>
<path id="Oval-Copy-5" d="M26.0893 51.0685C32.5273 51.0685 37.7463 45.8495 37.7463 39.4116C37.7463 32.9736 32.5273 27.7546 26.0893 27.7546C19.6514 27.7546 14.4324 32.9736 14.4324 39.4116C14.4324 45.8495 19.6514 51.0685 26.0893 51.0685Z" fill="#ADE347"/>
<path id="Combined-Shape-Copy-3" fill-rule="evenodd" clip-rule="evenodd" d="M23.8943 25.509C23.8943 26.7214 25.5406 29.8993 26.0894 29.8993C26.6382 29.8993 28.2845 26.7214 28.2845 25.509C28.2845 24.2967 27.3017 23.3139 26.0894 23.3139C24.8771 23.3139 23.8943 24.2967 23.8943 25.509ZM34.3678 28.0288C33.5105 28.8861 32.4275 32.2974 32.8156 32.6854C33.2036 33.0735 36.6149 31.9905 37.4722 31.1332C38.3294 30.276 38.3294 28.8861 37.4722 28.0288C36.6149 27.1716 35.225 27.1716 34.3678 28.0288ZM35.6017 39.4116C35.6017 38.8628 38.7796 37.2165 39.992 37.2165C41.2043 37.2165 42.1871 38.1993 42.1871 39.4116C42.1871 40.6239 41.2043 41.6067 39.992 41.6067C38.7796 41.6067 35.6017 39.9604 35.6017 39.4116ZM37.4722 47.69C36.6149 46.8327 33.2036 45.7497 32.8156 46.1378C32.4275 46.5258 33.5105 49.9371 34.3678 50.7944C35.225 51.6516 36.6149 51.6516 37.4722 50.7944C38.3294 49.9371 38.3294 48.5473 37.4722 47.69ZM26.0894 48.9239C26.6382 48.9239 28.2845 52.1018 28.2845 53.3142C28.2845 54.5265 27.3017 55.5093 26.0894 55.5093C24.8771 55.5093 23.8943 54.5265 23.8943 53.3142C23.8943 52.1018 25.5406 48.9239 26.0894 48.9239ZM17.811 50.7944C18.6683 49.9371 19.7513 46.5258 19.3632 46.1378C18.9752 45.7497 15.5639 46.8327 14.7066 47.69C13.8493 48.5473 13.8493 49.9371 14.7066 50.7944C15.5639 51.6516 16.9537 51.6516 17.811 50.7944ZM16.5771 39.4116C16.5771 39.9604 13.3992 41.6067 12.1868 41.6067C10.9745 41.6067 9.9917 40.6239 9.9917 39.4116C9.9917 38.1993 10.9745 37.2165 12.1868 37.2165C13.3992 37.2165 16.5771 38.8628 16.5771 39.4116ZM14.7066 31.1332C15.5639 31.9905 18.9752 33.0735 19.3632 32.6854C19.7513 32.2974 18.6683 28.8861 17.811 28.0288C16.9537 27.1716 15.5639 27.1716 14.7066 28.0288C13.8493 28.8861 13.8493 30.276 14.7066 31.1332Z" fill="#073F15"/>
<path id="Oval-Copy-6" d="M26.0893 44.4074C28.8485 44.4074 31.0852 42.1707 31.0852 39.4116C31.0852 36.6525 28.8485 34.4158 26.0893 34.4158C23.3302 34.4158 21.0935 36.6525 21.0935 39.4116C21.0935 42.1707 23.3302 44.4074 26.0893 44.4074Z" fill="white"/>
<g id="Group-2-Copy-2">
<path id="kiwi" fill-rule="evenodd" clip-rule="evenodd" d="M94.4407 53.273C94.4407 52.5332 94.1608 51.8675 93.6012 51.2757L85.8696 42.8426L92.5409 36.6731C93.2478 36.0517 93.6012 35.386 93.6012 34.6758C93.6012 34.1136 93.3435 33.5588 92.8281 33.0114C92.3126 32.464 91.7309 32.1903 91.0829 32.1903C90.3466 32.1903 89.6986 32.4714 89.139 33.0336L79.6843 42.2212V25.7989C79.6843 25.0296 79.4339 24.386 78.9332 23.8682C78.4325 23.3503 77.7992 23.0914 77.0334 23.0914C76.2676 23.0914 75.6344 23.3503 75.1336 23.8682C74.6329 24.386 74.3826 25.0296 74.3826 25.7989V53.2286C74.3826 53.9979 74.6329 54.6415 75.1336 55.1593C75.6344 55.6772 76.2676 55.9361 77.0334 55.9361C77.7992 55.9361 78.4325 55.6772 78.9332 55.1593C79.4339 54.6415 79.6843 53.9979 79.6843 53.2286V48.5682L81.8491 46.5709L89.8017 55.004C90.3318 55.5958 90.9798 55.8917 91.7456 55.8917C92.3936 55.8917 93.0048 55.6402 93.5791 55.1371C94.1535 54.6341 94.4407 54.0127 94.4407 53.273ZM107.739 55.1593C108.24 54.6415 108.49 53.9979 108.49 53.2286V34.8977C108.49 34.1284 108.24 33.4848 107.739 32.967C107.238 32.4492 106.605 32.1903 105.839 32.1903C105.073 32.1903 104.44 32.4492 103.94 32.967C103.439 33.4848 103.188 34.1284 103.188 34.8977V53.2286C103.188 53.9979 103.439 54.6415 103.94 55.1593C104.44 55.6772 105.073 55.9361 105.839 55.9361C106.605 55.9361 107.238 55.6772 107.739 55.1593ZM145.558 32.1903C146.265 32.1903 146.861 32.4492 147.347 32.967C147.833 33.4848 148.076 34.1432 148.076 34.9421C148.076 35.2084 148.017 35.5487 147.899 35.963L141.14 54.2494C140.963 54.7821 140.646 55.2037 140.19 55.5144C139.733 55.8251 139.24 55.9804 138.71 55.9804L138.356 55.9361C137.355 55.8769 136.604 55.3147 136.103 54.2494L132.348 43.3308L128.769 54.2494C128.268 55.3147 127.517 55.8769 126.516 55.9361L126.162 55.9804C125.632 55.9804 125.139 55.8251 124.682 55.5144C124.226 55.2037 123.909 54.7821 123.733 54.2494L116.973 35.963C116.855 35.6375 116.796 35.2972 116.796 34.9421C116.796 34.2024 117.039 33.5588 117.525 33.0114C118.011 32.464 118.652 32.1903 119.447 32.1903C120.036 32.1903 120.544 32.3308 120.971 32.6119C121.398 32.893 121.7 33.3147 121.877 33.8769L126.648 46.8816L130.139 37.3833C130.61 36.2885 131.42 35.7411 132.569 35.7411C133.187 35.7411 133.666 35.8742 134.005 36.1405C134.343 36.4068 134.63 36.8211 134.866 37.3833L138.268 46.6597L142.995 33.8769C143.172 33.3147 143.481 32.893 143.923 32.6119C144.365 32.3308 144.91 32.1903 145.558 32.1903ZM160.933 55.1593C161.433 54.6415 161.684 53.9979 161.684 53.2286V34.8977C161.684 34.1284 161.433 33.4848 160.933 32.967C160.432 32.4492 159.799 32.1903 159.033 32.1903C158.267 32.1903 157.634 32.4492 157.133 32.967C156.632 33.4848 156.382 34.1284 156.382 34.8977V53.2286C156.382 53.9979 156.632 54.6415 157.133 55.1593C157.634 55.6772 158.267 55.9361 159.033 55.9361C159.799 55.9361 160.432 55.6772 160.933 55.1593Z" fill="#0D361E"/>
<path id="Oval" d="M105.828 30.193C106.491 30.193 108.479 26.3376 108.479 24.8668C108.479 23.396 107.292 22.2037 105.828 22.2037C104.364 22.2037 103.177 23.396 103.177 24.8668C103.177 26.3376 105.166 30.193 105.828 30.193Z" fill="#ADE347"/>
<path id="Oval-Copy" d="M159.044 30.193C159.707 30.193 161.695 26.3376 161.695 24.8668C161.695 23.396 160.508 22.2037 159.044 22.2037C157.58 22.2037 156.393 23.396 156.393 24.8668C156.393 26.3376 158.381 30.193 159.044 30.193Z" fill="#ADE347"/>
</g>
</g>
</svg>
