<svg width="120" height="74" viewBox="0 0 120 74" fill="none" xmlns="http://www.w3.org/2000/svg">
<g id="ToeknSuite_logo_transparent Copy">
<g id="Group 3">
<mask id="mask0" mask-type="alpha" maskUnits="userSpaceOnUse" x="0" y="0" width="120" height="74">
<path id="Clip 2" fill-rule="evenodd" clip-rule="evenodd" d="M8.49751 8.87499H1.74755C0.993562 8.87499 0.520324 8.77856 0.327822 8.58571C0.135313 8.39285 0.0390625 7.91878 0.0390625 7.16349V5.01811C0.0390625 4.26282 0.135313 3.78875 0.327822 3.5959C0.520324 3.40304 0.993562 3.30661 1.74755 3.30661H21.6723C22.4103 3.30661 22.8835 3.41111 23.092 3.62002C23.2845 3.8128 23.3808 4.27888 23.3808 5.01811V7.16349C23.3808 7.91878 23.2845 8.39285 23.092 8.58571C22.8995 8.77856 22.4263 8.87499 21.6723 8.87499H14.8983V34.499C14.8983 35.2544 14.802 35.7284 14.6095 35.9213C14.417 36.1141 13.9438 36.2105 13.1898 36.2105H10.206C9.45201 36.2105 8.97877 36.1141 8.78627 35.9213C8.59376 35.7284 8.49751 35.2544 8.49751 34.499V8.87499ZM31.3927 14.13C35.2428 14.13 38.3149 15.3433 40.6089 17.7699C42.5661 19.8429 43.5446 22.4222 43.5446 25.5077C43.5446 29.0432 42.2933 31.8956 39.7908 34.0652C37.577 35.9614 34.7295 36.9096 31.2484 36.9096C29.0185 36.9096 26.917 36.4114 24.9438 35.415C22.9867 34.4347 21.4948 32.9885 20.4681 31.076C19.5858 29.4047 19.1446 27.4924 19.1446 25.3389C19.1446 21.8357 20.444 19.0154 23.0428 16.878C24.2941 15.8494 25.8181 15.1022 27.6148 14.6361C28.9142 14.2987 30.1735 14.13 31.3927 14.13ZM31.3446 19.5295C29.6762 19.5295 28.2565 20.1162 27.0854 21.2893C25.9144 22.4785 25.3288 23.9167 25.3288 25.6042C25.3288 27.1951 25.9144 28.5771 27.0854 29.7503C28.2565 30.9234 29.6762 31.5099 31.3446 31.5099C33.013 31.5099 34.4327 30.9234 35.6038 29.7503C36.7748 28.5932 37.3604 27.187 37.3604 25.5318C37.3604 23.8444 36.7748 22.4303 35.6038 21.2893C34.4006 20.1162 32.9809 19.5295 31.3446 19.5295ZM79.2542 26.4961C79.3184 28.312 79.7836 29.7101 80.6499 30.6904C81.5803 31.7188 82.8637 32.2331 84.5 32.2331C86.5213 32.2331 88.0853 31.4457 89.1923 29.8708C89.4008 29.5815 89.6655 29.4369 89.9863 29.4369C90.0345 29.4369 90.3232 29.4771 90.8526 29.5574L93.0183 29.919C93.6119 30.0154 94.0129 30.136 94.2215 30.2806C94.43 30.4253 94.5343 30.6663 94.5343 31.0037C94.5343 31.3091 94.3658 31.735 94.029 32.2814C93.6921 32.8277 93.291 33.3259 92.8258 33.7759C90.6922 35.865 87.941 36.9096 84.5722 36.9096C82.4546 36.9096 80.5055 36.4596 78.7248 35.5597C76.5912 34.483 75.0592 32.8598 74.1288 30.6904C73.4711 29.1637 73.1422 27.4522 73.1422 25.5559C73.1422 23.3382 73.6235 21.2973 74.586 19.4332C75.5164 17.6011 76.896 16.2432 78.7248 15.3593C80.3932 14.5397 82.2541 14.13 84.3075 14.13C87.4517 14.13 90.0024 15.0219 91.9595 16.8057C92.9542 17.7217 93.7482 18.9269 94.3417 20.4215C94.9353 21.916 95.2321 23.4507 95.2321 25.0256C95.2321 25.6523 95.1319 26.0541 94.9313 26.2309C94.7308 26.4076 94.2616 26.4961 93.5237 26.4961H79.2542ZM89.5532 22.6874C89.3126 21.6107 88.9356 20.767 88.4223 20.1563C87.4437 18.9832 86.1202 18.3966 84.4518 18.3966C83.1524 18.3966 82.0656 18.7742 81.1913 19.5295C80.317 20.2849 79.7435 21.3375 79.4708 22.6874H89.5532ZM104.974 17.4806C105.793 16.436 106.587 15.6888 107.357 15.2388C108.608 14.4995 110.052 14.13 111.688 14.13C114.319 14.13 116.388 14.9897 117.896 16.7092C118.522 17.4324 118.959 18.2359 119.208 19.1198C119.456 20.0037 119.581 21.1768 119.581 22.6392V34.499C119.581 35.2544 119.484 35.7284 119.292 35.9213C119.099 36.1141 118.634 36.2105 117.896 36.2105H115.298C114.576 36.2105 114.11 36.1141 113.902 35.9213C113.709 35.7123 113.613 35.2383 113.613 34.499V24.3747C113.613 22.7356 113.421 21.5786 113.036 20.9036C112.394 19.7786 111.223 19.2162 109.522 19.2162C107.982 19.2162 106.839 19.7023 106.093 20.6746C105.347 21.6468 104.974 23.1373 104.974 25.1462V34.499C104.974 35.2544 104.878 35.7284 104.686 35.9213C104.493 36.1141 104.02 36.2105 103.266 36.2105H100.691C99.9532 36.2105 99.4881 36.1141 99.2955 35.9213C99.103 35.7284 99.0068 35.2544 99.0068 34.499V16.5405C99.0068 15.7852 99.103 15.3111 99.2955 15.1183C99.4881 14.9254 99.9532 14.829 100.691 14.829H103.266C104.02 14.829 104.493 14.9254 104.686 15.1183C104.878 15.3111 104.974 15.7852 104.974 16.5405V17.4806ZM48.4358 0.00741577H51.7212C52.6284 0.00741577 53.3639 0.744113 53.3639 1.65302V34.5649C53.3639 35.4738 52.6284 36.2105 51.7212 36.2105H48.4358C47.5286 36.2105 46.7931 35.4738 46.7931 34.5649V1.65302C46.7931 0.744113 47.5286 0.00741577 48.4358 0.00741577ZM23.3383 44.4455L21.9884 46.0605C21.4767 46.6873 21.0268 47.0007 20.6386 47.0007C20.4445 47.0007 20.2769 46.9605 20.1358 46.8801C19.9946 46.7998 19.6064 46.5105 18.9712 46.0123C18.5654 45.7231 17.9567 45.4659 17.145 45.241C16.3334 45.016 15.5835 44.9035 14.8953 44.9035C13.3426 44.9035 12.081 45.3052 11.1106 46.1088C10.246 46.8159 9.81371 47.6354 9.81371 48.5675C9.81371 49.4674 10.1975 50.2027 10.965 50.7732C11.7326 51.3437 13.175 51.9824 15.2923 52.6895C17.3038 53.3484 18.8036 53.9069 19.7917 54.3649C20.7798 54.8229 21.6885 55.3652 22.5178 55.992C24.6528 57.6312 25.7203 59.9372 25.7203 62.9102C25.7203 66.4618 24.3528 69.2419 21.6179 71.2507C19.3241 72.922 16.4922 73.7577 13.1221 73.7577C10.4048 73.7577 7.9434 73.1551 5.73782 71.9498C4.55563 71.307 3.48373 70.5396 2.5221 69.6477C1.56047 68.7558 1.07966 68.0849 1.07966 67.6349C1.07966 67.3456 1.37079 66.9439 1.95306 66.4296L3.7528 64.8387C4.33508 64.3244 4.76736 64.0673 5.04968 64.0673C5.40258 64.0673 5.72899 64.228 6.02895 64.5494C6.8406 65.4654 7.36111 66.0198 7.5905 66.2127C7.81987 66.4055 8.19923 66.6385 8.72857 66.9117C10.0519 67.5706 11.4458 67.9001 12.9103 67.9001C14.7277 67.9001 16.1481 67.3697 17.1715 66.3091C18.0361 65.4252 18.4684 64.4128 18.4684 63.2718C18.4684 61.9058 17.8067 60.797 16.4833 59.9453C15.8481 59.5274 14.1807 58.8686 11.4811 57.9686C8.72855 57.0687 6.69945 56.1125 5.39375 55.1001C3.50578 53.6537 2.5618 51.653 2.5618 49.0978C2.5618 45.6266 4.14979 42.9751 7.32583 41.143C9.23145 40.0502 11.4105 39.5039 13.8631 39.5039C15.5923 39.5039 17.3612 39.7811 19.1697 40.3355C20.9783 40.8899 22.4472 41.6091 23.5764 42.4929C23.8764 42.7179 24.0264 42.9911 24.0264 43.3125C24.0264 43.5375 23.797 43.9152 23.3383 44.4455ZM35.4192 53.2922V63.6816C35.4192 65.0637 35.6598 66.1163 36.1411 66.8394C36.9272 67.9804 38.1303 68.5509 39.7506 68.5509C41.1944 68.5509 42.2812 68.1411 43.0111 67.3215C43.741 66.5019 44.106 65.2886 44.106 63.6816V53.2922C44.106 52.5369 44.2022 52.0628 44.3947 51.8699C44.5872 51.6771 45.0524 51.5807 45.7904 51.5807H48.3892C49.1271 51.5807 49.5923 51.6771 49.7848 51.8699C49.9773 52.0628 50.0736 52.5369 50.0736 53.2922V64.694C50.0736 67.4099 49.3116 69.499 47.7876 70.9615C45.9106 72.7613 43.2397 73.6613 39.7746 73.6613C36.2935 73.6613 33.6145 72.7613 31.7375 70.9615C30.2135 69.483 29.4515 67.3939 29.4515 64.694V53.2922C29.4515 52.5369 29.5478 52.0628 29.7403 51.8699C29.9328 51.6771 30.398 51.5807 31.136 51.5807H33.7107C34.4647 51.5807 34.938 51.6771 35.1304 51.8699C35.3229 52.0628 35.4192 52.5369 35.4192 53.2922ZM75.3608 56.7392V71.2507C75.3608 72.006 75.2645 72.4801 75.072 72.6729C74.8796 72.8658 74.4143 72.9622 73.6764 72.9622H71.0776C70.3557 72.9622 69.8905 72.8658 69.6819 72.6729C69.4894 72.464 69.3932 71.9899 69.3932 71.2507V56.7392H67.6243C66.9024 56.7392 66.4372 56.6428 66.2286 56.45C66.0361 56.2411 65.9398 55.775 65.9398 55.0519V53.2922C65.9398 52.5369 66.0361 52.0628 66.2286 51.87C66.4211 51.6771 66.8863 51.5807 67.6243 51.5807H69.3932V46.0123C69.3932 45.257 69.4894 44.783 69.6819 44.5901C69.8744 44.3973 70.3396 44.3008 71.0776 44.3008H73.6764C74.3983 44.3008 74.8635 44.3973 75.072 44.5901C75.2645 44.799 75.3608 45.2731 75.3608 46.0123V51.5807H79.5302C80.2841 51.5807 80.7574 51.6771 80.9499 51.87C81.1424 52.0628 81.2386 52.5369 81.2386 53.2922V55.0519C81.2386 55.7911 81.1424 56.2571 80.9499 56.45C80.7574 56.6428 80.2841 56.7392 79.5302 56.7392H75.3608ZM89.2649 63.2477C89.329 65.0637 89.7943 66.4618 90.6605 67.4421C91.591 68.4706 92.8743 68.9848 94.5106 68.9848C96.5319 68.9848 98.0961 68.1974 99.2029 66.6225C99.4115 66.3332 99.6762 66.1886 99.997 66.1886C100.045 66.1886 100.334 66.2287 100.863 66.3091L103.029 66.6707C103.623 66.7671 104.024 66.8876 104.232 67.0323C104.441 67.1769 104.545 67.418 104.545 67.7554C104.545 68.0608 104.376 68.4866 104.04 69.033C103.703 69.5794 103.302 70.0776 102.836 70.5275C100.703 72.6167 97.9517 73.6613 94.5828 73.6613C92.4653 73.6613 90.5162 73.2113 88.7355 72.3114C86.6019 71.2346 85.0699 69.6116 84.1394 67.4421C83.4817 65.9154 83.1528 64.2039 83.1528 62.3076C83.1528 60.0899 83.6341 58.049 84.5966 56.1848C85.5271 54.3528 86.9067 52.9949 88.7355 52.111C90.4039 51.2914 92.2647 50.8816 94.3181 50.8816C97.4624 50.8816 100.013 51.7735 101.97 53.5573C102.965 54.4733 103.759 55.6786 104.352 57.1731C104.946 58.6677 105.243 60.2024 105.243 61.7773C105.243 62.404 105.143 62.8058 104.942 62.9825C104.741 63.1593 104.272 63.2477 103.534 63.2477H89.2649ZM99.5639 59.4391C99.3233 58.3623 98.9463 57.5187 98.4329 56.908C97.4543 55.7348 96.1309 55.1483 94.4625 55.1483C93.1631 55.1483 92.0762 55.5259 91.2019 56.2812C90.3277 57.0365 89.7542 58.0891 89.4814 59.4391H99.5639ZM57.1969 51.0209H60.4823C61.3896 51.0209 62.125 51.7577 62.125 52.6665V71.3166C62.125 72.2254 61.3896 72.9622 60.4823 72.9622H57.1969C56.2897 72.9622 55.5542 72.2254 55.5542 71.3166V52.6665C55.5542 51.7577 56.2897 51.0209 57.1969 51.0209ZM113.597 73.5107C111.48 73.5107 109.764 71.7916 109.764 69.671C109.764 67.5504 111.48 65.8313 113.597 65.8313C115.713 65.8313 117.43 67.5504 117.43 69.671C117.43 71.7916 115.713 73.5107 113.597 73.5107Z" fill="white"/>
</mask>
<g mask="url(#mask0)">
<path id="Fill 1" fill-rule="evenodd" clip-rule="evenodd" d="M-3.90918 -3.94778H123.529V77.7129H-3.90918V-3.94778Z" fill="#252731"/>
</g>
</g>
<g id="Group 6">
<mask id="mask1" mask-type="alpha" maskUnits="userSpaceOnUse" x="54" y="11" width="18" height="37">
<path id="Clip 5" fill-rule="evenodd" clip-rule="evenodd" d="M67.8619 19.2501L67.8671 19.2556C65.9617 19.0775 64.5249 19.4411 63.5567 20.3464C62.5886 21.2516 62.1467 22.6645 62.2311 24.585L62.2291 24.583C62.2304 24.6249 62.2311 24.6671 62.2311 24.7094C62.2311 24.7419 62.2307 24.7744 62.2299 24.8067L62.2311 24.8056C62.1467 26.7449 62.5886 28.1672 63.5567 29.0724C64.4764 29.9322 65.843 30.3034 67.6567 30.1859C67.7415 30.1764 67.8271 30.1698 67.9135 30.1663C67.9249 30.1653 67.9364 30.1643 67.9479 30.1632L67.9461 30.165C67.9853 30.1639 68.0246 30.1632 68.064 30.1632C70.114 30.1632 71.7759 31.8724 71.7759 33.9809C71.7759 36.0893 70.114 37.7985 68.064 37.7985C67.9102 37.7985 67.7585 37.7889 67.6096 37.7702C65.8193 37.6639 64.4683 38.0369 63.5567 38.8893C62.5886 39.7945 62.1467 41.1966 62.2311 43.0956L62.2278 43.0923C62.23 43.1453 62.2311 43.1987 62.2311 43.2523C62.2311 45.3607 60.5692 47.0699 58.5192 47.0699C56.4692 47.0699 54.8074 45.3607 54.8074 43.2523C54.8074 41.1439 56.4692 39.4346 58.5192 39.4346C58.5638 39.4346 58.6082 39.4354 58.6524 39.437L58.6501 39.4346C58.6666 39.4362 58.6833 39.4376 58.6998 39.4391C58.769 39.4425 58.8376 39.4478 58.9056 39.4551C60.7274 39.5795 62.1011 39.2091 63.0265 38.3439C63.9947 37.4386 64.4369 36.0499 64.3533 34.1778L64.3572 34.1817C64.3539 34.1152 64.3521 34.0482 64.3521 33.9809C64.3521 33.908 64.3541 33.8355 64.3581 33.7636C64.4173 31.8852 63.9735 30.5032 63.0265 29.6178C62.1167 28.7671 60.7602 28.3948 58.9572 28.5007C58.8463 28.5142 58.7339 28.5225 58.6203 28.5257C58.6152 28.5261 58.61 28.5266 58.6048 28.5271L58.6058 28.5261C58.577 28.5267 58.5481 28.5271 58.5192 28.5271C56.4692 28.5271 54.8074 26.8178 54.8074 24.7094C54.8074 22.6009 56.4692 20.8917 58.5192 20.8917C58.5481 20.8917 58.577 20.8921 58.6058 20.8927L58.6048 20.8917C58.61 20.8922 58.6152 20.8927 58.6203 20.8931C58.7339 20.8963 58.8463 20.9046 58.9572 20.9181C60.7602 21.024 62.1167 20.6517 63.0265 19.801C63.9713 18.9175 64.4153 17.538 64.3584 15.6625C64.3542 15.5882 64.3521 15.5133 64.3521 15.4379C64.3521 13.3295 66.014 11.6203 68.064 11.6203C70.114 11.6203 71.7759 13.3295 71.7759 15.4379C71.7759 17.5464 70.114 19.2556 68.064 19.2556C67.9962 19.2556 67.9288 19.2538 67.8619 19.2501Z" fill="white"/>
</mask>
<g mask="url(#mask1)">
<path id="Fill 4" fill-rule="evenodd" clip-rule="evenodd" d="M50.9839 7.68784H75.5994V51.0024H50.9839V7.68784Z" fill="#B74AFF"/>
</g>
</g>
</g>
</svg>
